<?xml version="1.0" encoding="UTF-8" standalone="no"?>
<!DOCTYPE svg PUBLIC "-//W3C//DTD SVG 1.1//EN" "http://www.w3.org/Graphics/SVG/1.1/DTD/svg11.dtd">
<!-- 由 Microsoft Visio, SVG Export 生成 ASP_NET_MVC生命周期_MVCApplication结束处理请求.svg 执行MvcApplaction结束处理请求事件 -->
<svg xmlns="http://www.w3.org/2000/svg" xmlns:xlink="http://www.w3.org/1999/xlink" xmlns:ev="http://www.w3.org/2001/xml-events"
		xmlns:v="http://schemas.microsoft.com/visio/2003/SVGExtensions/" width="8.26772in" height="11.6929in"
		viewBox="0 0 595.276 841.89" xml:space="preserve" color-interpolation-filters="sRGB" class="st4">
	<v:documentProperties v:langID="2052" v:metric="true" v:viewMarkup="false">
		<v:userDefs>
			<v:ud v:nameU="msvNoAutoConnect" v:val="VT0(1):26"/>
		</v:userDefs>
	</v:documentProperties>

	<style type="text/css">
	<![CDATA[
		.st1 {fill:#f07f09;stroke:#c8c8c8;stroke-width:0.25}
		.st2 {fill:#feffff;font-family:宋体;font-size:0.833336em}
		.st3 {font-size:1em}
		.st4 {fill:none;fill-rule:evenodd;font-size:12px;overflow:visible;stroke-linecap:square;stroke-miterlimit:3}
	]]>
	</style>

	<g v:mID="8" v:index="5" v:groupContext="foregroundPage">
		<v:userDefs>
			<v:ud v:nameU="msvThemeOrder" v:val="VT0(0):26"/>
		</v:userDefs>
		<title>MvcApplaction结束处理请求事件</title>
		<v:pageProperties v:drawingScale="0.0393701" v:pageScale="0.0393701" v:drawingUnits="24" v:shadowOffsetX="8.50394"
				v:shadowOffsetY="-8.50394"/>
		<v:layer v:name="流程图" v:index="0"/>
		<g id="group2-1" transform="translate(113.386,-742.012)" v:mID="2" v:groupContext="group" v:layerMember="0">
			<v:custProps>
				<v:cp v:nameU="Cost" v:lbl="成本" v:type="7" v:format="@" v:langID="2052"/>
				<v:cp v:nameU="Duration" v:lbl="持续时间" v:type="2" v:langID="2052"/>
				<v:cp v:nameU="Resources" v:lbl="资源" v:langID="2052"/>
			</v:custProps>
			<v:userDefs>
				<v:ud v:nameU="AntiScale" v:val="VT0(1):26"/>
				<v:ud v:nameU="visVersion" v:val="VT0(15):26"/>
				<v:ud v:nameU="Scale" v:val="VT0(1):26"/>
			</v:userDefs>
			<title>分段流程 2</title>
			<g id="shape3-2" v:mID="3" v:groupContext="shape" v:layerMember="0" transform="translate(0,-28.0037)">
				<title>工作表.3</title>
				<desc>MvcApplication.PostRequestHandlerExecute</desc>
				<v:textBlock v:margins="rect(2,2,2,2)" v:tabSpace="42.5197"/>
				<v:textRect cx="170.079" cy="830.047" width="340.16" height="23.6853"/>
				<path d="M0 841.89 L340.16 841.89 L340.16 826.71 A7.4577 7.4577 -180 0 0 331.65 818.2 L8.5 818.2 A7.65745 7.65745
							 -180 0 0 0 826.71 L0 841.89 Z" class="st1"/>
				<text x="70.08" y="833.05" class="st2" v:langID="1033"><v:paragraph v:horizAlign="1"/><v:tabList/>MvcApplication<tspan
							class="st3" v:langID="2052">.</tspan>PostRequestHandlerExecute</text>			</g>
			<g id="shape4-6" v:mID="4" v:groupContext="shape" v:layerMember="0" transform="translate(0.0165256,0)">
				<title>工作表.4</title>
				<desc>当 ASP.NET 事件处理程序 例如一个页面或 XML Web 服务 完成执行时发生。</desc>
				<v:textBlock v:margins="rect(2,2,2,2)" v:tabSpace="42.5197"/>
				<v:textRect cx="170.079" cy="827.888" width="340.16" height="28.0037"/>
				<path d="M-0 833.39 A7.55761 7.55761 -180 0 0 8.5 841.89 L331.65 841.89 A7.53702 7.53702 -180 0 0 340.16 833.39 L340.16
							 813.89 L0 813.89 L0 833.39 Z" class="st1"/>
				<text x="5.08" y="824.89" class="st2" v:langID="2052"><v:paragraph v:horizAlign="1"/><v:tabList/>当 <tspan
							class="st3" v:langID="1033">ASP.NET </tspan>事件处理程序 （例如，一个页面或 <tspan class="st3" v:langID="1033">XML Web </tspan>服务） 完成执行<tspan
							x="150.08" dy="1.2em" class="st3">时发生</tspan>。</text>			</g>
		</g>
		<g id="group5-12" transform="translate(113.386,-672.292)" v:mID="5" v:groupContext="group" v:layerMember="0">
			<v:custProps>
				<v:cp v:nameU="Cost" v:lbl="成本" v:type="7" v:format="@" v:langID="2052"/>
				<v:cp v:nameU="Duration" v:lbl="持续时间" v:type="2" v:langID="2052"/>
				<v:cp v:nameU="Resources" v:lbl="资源" v:langID="2052"/>
			</v:custProps>
			<v:userDefs>
				<v:ud v:nameU="AntiScale" v:val="VT0(1):26"/>
				<v:ud v:nameU="visVersion" v:val="VT0(15):26"/>
				<v:ud v:nameU="Scale" v:val="VT0(1):26"/>
			</v:userDefs>
			<title>分段流程 2.5</title>
			<g id="shape6-13" v:mID="6" v:groupContext="shape" v:layerMember="0" transform="translate(0,-28.0037)">
				<title>工作表.6</title>
				<desc>MvcApplication.ReleaseRequestState</desc>
				<v:textBlock v:margins="rect(2,2,2,2)" v:tabSpace="42.5197"/>
				<v:textRect cx="170.079" cy="830.047" width="340.16" height="23.6853"/>
				<path d="M0 841.89 L340.16 841.89 L340.16 826.71 A7.4577 7.4577 -180 0 0 331.65 818.2 L8.5 818.2 A7.65745 7.65745
							 -180 0 0 0 826.71 L0 841.89 Z" class="st1"/>
				<text x="85.08" y="833.05" class="st2" v:langID="1033"><v:paragraph v:horizAlign="1"/><v:tabList/>MvcApplication<tspan
							class="st3" v:langID="2052">.</tspan>ReleaseRequestState</text>			</g>
			<g id="shape7-17" v:mID="7" v:groupContext="shape" v:layerMember="0" transform="translate(0.0165256,0)">
				<title>工作表.7</title>
				<desc>ASP.NET 完成执行所有请求事件处理程序后发生。 此事件会导致状态模块保存当前的状态数据。</desc>
				<v:textBlock v:margins="rect(2,2,2,2)" v:tabSpace="42.5197"/>
				<v:textRect cx="170.079" cy="827.888" width="340.16" height="28.0037"/>
				<path d="M-0 833.39 A7.55761 7.55761 -180 0 0 8.5 841.89 L331.65 841.89 A7.53702 7.53702 -180 0 0 340.16 833.39 L340.16
							 813.89 L0 813.89 L0 833.39 Z" class="st1"/>
				<text x="2.58" y="824.89" class="st2" v:langID="1033"><v:paragraph v:horizAlign="1"/><v:tabList/>ASP.NET <tspan
							class="st3" v:langID="2052">完成执行所有请求事件处理程序后发生</tspan><tspan class="st3" v:langID="2052">。</tspan><tspan
							class="st3" v:langID="2052"> </tspan><tspan class="st3" v:langID="2052">此事件会导致状态模块保</tspan><tspan
							x="125.08" dy="1.2em" class="st3" v:langID="2052">存当前的状态数据</tspan><tspan class="st3" v:langID="2052">。</tspan></text>			</g>
		</g>
		<g id="group8-26" transform="translate(113.386,-602.572)" v:mID="8" v:groupContext="group" v:layerMember="0">
			<v:custProps>
				<v:cp v:nameU="Cost" v:lbl="成本" v:type="7" v:format="@" v:langID="2052"/>
				<v:cp v:nameU="Duration" v:lbl="持续时间" v:type="2" v:langID="2052"/>
				<v:cp v:nameU="Resources" v:lbl="资源" v:langID="2052"/>
			</v:custProps>
			<v:userDefs>
				<v:ud v:nameU="AntiScale" v:val="VT0(1):26"/>
				<v:ud v:nameU="visVersion" v:val="VT0(15):26"/>
				<v:ud v:nameU="Scale" v:val="VT0(1):26"/>
			</v:userDefs>
			<title>分段流程 2.8</title>
			<g id="shape9-27" v:mID="9" v:groupContext="shape" v:layerMember="0" transform="translate(0,-28.0037)">
				<title>工作表.9</title>
				<desc>MvcApplication.PostReleaseRequestState</desc>
				<v:textBlock v:margins="rect(2,2,2,2)" v:tabSpace="42.5197"/>
				<v:textRect cx="170.079" cy="830.047" width="340.16" height="23.6853"/>
				<path d="M0 841.89 L340.16 841.89 L340.16 826.71 A7.4577 7.4577 -180 0 0 331.65 818.2 L8.5 818.2 A7.65745 7.65745
							 -180 0 0 0 826.71 L0 841.89 Z" class="st1"/>
				<text x="75.08" y="833.05" class="st2" v:langID="1033"><v:paragraph v:horizAlign="1"/><v:tabList/>MvcApplication<tspan
							class="st3" v:langID="2052">.</tspan>PostReleaseRequestState</text>			</g>
			<g id="shape10-31" v:mID="10" v:groupContext="shape" v:layerMember="0" transform="translate(0.0165256,0)">
				<title>工作表.10</title>
				<desc>当 ASP.NET 已完成执行所有请求事件处理程序和存储数据的请求状态时发生。</desc>
				<v:textBlock v:margins="rect(2,2,2,2)" v:tabSpace="42.5197"/>
				<v:textRect cx="170.079" cy="827.888" width="340.16" height="28.0037"/>
				<path d="M-0 833.39 A7.55761 7.55761 -180 0 0 8.5 841.89 L331.65 841.89 A7.53702 7.53702 -180 0 0 340.16 833.39 L340.16
							 813.89 L0 813.89 L0 833.39 Z" class="st1"/>
				<text x="7.58" y="824.89" class="st2" v:langID="2052"><v:paragraph v:horizAlign="1"/><v:tabList/>当 <tspan
							class="st3" v:langID="1033">ASP.NET </tspan>已完成执行所有请求事件处理程序和存储数据的请求状态时发<tspan x="160.08" dy="1.2em"
							class="st3">生</tspan>。</text>			</g>
		</g>
		<g id="group11-36" transform="translate(113.386,-532.852)" v:mID="11" v:groupContext="group" v:layerMember="0">
			<v:custProps>
				<v:cp v:nameU="Cost" v:lbl="成本" v:type="7" v:format="@" v:langID="2052"/>
				<v:cp v:nameU="Duration" v:lbl="持续时间" v:type="2" v:langID="2052"/>
				<v:cp v:nameU="Resources" v:lbl="资源" v:langID="2052"/>
			</v:custProps>
			<v:userDefs>
				<v:ud v:nameU="AntiScale" v:val="VT0(1):26"/>
				<v:ud v:nameU="visVersion" v:val="VT0(15):26"/>
				<v:ud v:nameU="Scale" v:val="VT0(1):26"/>
			</v:userDefs>
			<title>分段流程 2.11</title>
			<g id="shape12-37" v:mID="12" v:groupContext="shape" v:layerMember="0" transform="translate(0,-28.0037)">
				<title>工作表.12</title>
				<desc>MvcApplication.UpdateRequestCache</desc>
				<v:textBlock v:margins="rect(2,2,2,2)" v:tabSpace="42.5197"/>
				<v:textRect cx="170.079" cy="830.047" width="340.16" height="23.6853"/>
				<path d="M0 841.89 L340.16 841.89 L340.16 826.71 A7.4577 7.4577 -180 0 0 331.65 818.2 L8.5 818.2 A7.65745 7.65745
							 -180 0 0 0 826.71 L0 841.89 Z" class="st1"/>
				<text x="87.58" y="833.05" class="st2" v:langID="1033"><v:paragraph v:horizAlign="1"/><v:tabList/>MvcApplication<tspan
							class="st3" v:langID="2052">.</tspan>UpdateRequestCache</text>			</g>
			<g id="shape13-41" v:mID="13" v:groupContext="shape" v:layerMember="0" transform="translate(0.0165256,0)">
				<title>工作表.13</title>
				<desc>当 ASP.NET 完成执行事件处理程序以便让缓存模块存储将用于为从缓存中的后续请求提供服务的响应时发生。</desc>
				<v:textBlock v:margins="rect(2,2,2,2)" v:tabSpace="42.5197"/>
				<v:textRect cx="170.079" cy="827.888" width="340.16" height="28.0037"/>
				<path d="M-0 833.39 A7.55761 7.55761 -180 0 0 8.5 841.89 L331.65 841.89 A7.53702 7.53702 -180 0 0 340.16 833.39 L340.16
							 813.89 L0 813.89 L0 833.39 Z" class="st1"/>
				<text x="2.58" y="824.89" class="st2" v:langID="2052"><v:paragraph v:horizAlign="1"/><v:tabList/>当 <tspan
							class="st3" v:langID="1033">ASP.NET </tspan>完成执行事件处理程序，以便让缓存模块存储将用于为从缓存中<tspan x="90.08" dy="1.2em"
							class="st3">的后续请求提供服务的响应时发生</tspan>。</text>			</g>
		</g>
		<g id="group14-46" transform="translate(113.386,-463.132)" v:mID="14" v:groupContext="group" v:layerMember="0">
			<v:custProps>
				<v:cp v:nameU="Cost" v:lbl="成本" v:type="7" v:format="@" v:langID="2052"/>
				<v:cp v:nameU="Duration" v:lbl="持续时间" v:type="2" v:langID="2052"/>
				<v:cp v:nameU="Resources" v:lbl="资源" v:langID="2052"/>
			</v:custProps>
			<v:userDefs>
				<v:ud v:nameU="AntiScale" v:val="VT0(1):26"/>
				<v:ud v:nameU="visVersion" v:val="VT0(15):26"/>
				<v:ud v:nameU="Scale" v:val="VT0(1):26"/>
			</v:userDefs>
			<title>分段流程 2.14</title>
			<g id="shape15-47" v:mID="15" v:groupContext="shape" v:layerMember="0" transform="translate(0,-28.0037)">
				<title>工作表.15</title>
				<desc>MvcApplication.PostUpdateRequestCache</desc>
				<v:textBlock v:margins="rect(2,2,2,2)" v:tabSpace="42.5197"/>
				<v:textRect cx="170.079" cy="830.047" width="340.16" height="23.6853"/>
				<path d="M0 841.89 L340.16 841.89 L340.16 826.71 A7.4577 7.4577 -180 0 0 331.65 818.2 L8.5 818.2 A7.65745 7.65745
							 -180 0 0 0 826.71 L0 841.89 Z" class="st1"/>
				<text x="77.58" y="833.05" class="st2" v:langID="1033"><v:paragraph v:horizAlign="1"/><v:tabList/>MvcApplication<tspan
							class="st3" v:langID="2052">.</tspan>PostUpdateRequestCache</text>			</g>
			<g id="shape16-51" v:mID="16" v:groupContext="shape" v:layerMember="0" transform="translate(0.0165256,0)">
				<title>工作表.16</title>
				<desc>当 ASP.NET 完成更新的缓存模块和存储用于为从缓存中的后续请求提供服务的响应时发生。</desc>
				<v:textBlock v:margins="rect(2,2,2,2)" v:tabSpace="42.5197"/>
				<v:textRect cx="170.079" cy="827.888" width="340.16" height="28.0037"/>
				<path d="M-0 833.39 A7.55761 7.55761 -180 0 0 8.5 841.89 L331.65 841.89 A7.53702 7.53702 -180 0 0 340.16 833.39 L340.16
							 813.89 L0 813.89 L0 833.39 Z" class="st1"/>
				<text x="2.58" y="824.89" class="st2" v:langID="2052"><v:paragraph v:horizAlign="1"/><v:tabList/>当 <tspan
							class="st3" v:langID="1033">ASP.NET </tspan>完成更新的缓存模块和存储用于为从缓存中的后续请求提供服务<tspan x="135.08" dy="1.2em"
							class="st3">的响应时发生</tspan>。</text>			</g>
		</g>
		<g id="group17-56" transform="translate(113.386,-393.412)" v:mID="17" v:groupContext="group" v:layerMember="0">
			<v:custProps>
				<v:cp v:nameU="Cost" v:lbl="成本" v:type="7" v:format="@" v:langID="2052"/>
				<v:cp v:nameU="Duration" v:lbl="持续时间" v:type="2" v:langID="2052"/>
				<v:cp v:nameU="Resources" v:lbl="资源" v:langID="2052"/>
			</v:custProps>
			<v:userDefs>
				<v:ud v:nameU="AntiScale" v:val="VT0(1):26"/>
				<v:ud v:nameU="visVersion" v:val="VT0(15):26"/>
				<v:ud v:nameU="Scale" v:val="VT0(1):26"/>
			</v:userDefs>
			<title>分段流程 2.17</title>
			<g id="shape18-57" v:mID="18" v:groupContext="shape" v:layerMember="0" transform="translate(0,-23.3425)">
				<title>工作表.18</title>
				<desc>MvcApplication.LogRequest</desc>
				<v:textBlock v:margins="rect(2,2,2,2)" v:tabSpace="42.5197"/>
				<v:textRect cx="170.079" cy="827.717" width="340.16" height="28.3464"/>
				<path d="M0 841.89 L340.16 841.89 L340.16 822.05 A7.4577 7.4577 -180 0 0 331.65 813.54 L8.5 813.54 A7.65745 7.65745
							 -180 0 0 0 822.05 L0 841.89 Z" class="st1"/>
				<text x="107.58" y="830.72" class="st2" v:langID="1033"><v:paragraph v:horizAlign="1"/><v:tabList/>MvcApplication<tspan
							class="st3" v:langID="2052">.</tspan>LogRequest</text>			</g>
			<g id="shape19-61" v:mID="19" v:groupContext="shape" v:layerMember="0" transform="translate(0.0165256,0)">
				<title>工作表.19</title>
				<desc>ASP.NET 执行当前请求的任何日志记录之前发生</desc>
				<v:textBlock v:margins="rect(2,2,2,2)" v:tabSpace="42.5197"/>
				<v:textRect cx="170.079" cy="830.218" width="340.16" height="23.3425"/>
				<path d="M-0 833.39 A7.55761 7.55761 -180 0 0 8.5 841.89 L331.65 841.89 A7.53702 7.53702 -180 0 0 340.16 833.39 L340.16
							 818.55 L0 818.55 L0 833.39 Z" class="st1"/>
				<text x="65.08" y="833.22" class="st2" v:langID="1033"><v:paragraph v:horizAlign="1"/><v:tabList/>ASP.NET <tspan
							class="st3" v:langID="2052">执行当前请求的任何日志记录之前发生</tspan></text>			</g>
		</g>
		<g id="group20-65" transform="translate(113.386,-323.692)" v:mID="20" v:groupContext="group" v:layerMember="0">
			<v:custProps>
				<v:cp v:nameU="Cost" v:lbl="成本" v:type="7" v:format="@" v:langID="2052"/>
				<v:cp v:nameU="Duration" v:lbl="持续时间" v:type="2" v:langID="2052"/>
				<v:cp v:nameU="Resources" v:lbl="资源" v:langID="2052"/>
			</v:custProps>
			<v:userDefs>
				<v:ud v:nameU="AntiScale" v:val="VT0(1):26"/>
				<v:ud v:nameU="visVersion" v:val="VT0(15):26"/>
				<v:ud v:nameU="Scale" v:val="VT0(1):26"/>
			</v:userDefs>
			<title>分段流程 2.20</title>
			<g id="shape21-66" v:mID="21" v:groupContext="shape" v:layerMember="0" transform="translate(0,-28.0037)">
				<title>工作表.21</title>
				<desc>MvcApplication.PostLogRequest</desc>
				<v:textBlock v:margins="rect(2,2,2,2)" v:tabSpace="42.5197"/>
				<v:textRect cx="170.079" cy="830.047" width="340.16" height="23.6853"/>
				<path d="M0 841.89 L340.16 841.89 L340.16 826.71 A7.4577 7.4577 -180 0 0 331.65 818.2 L8.5 818.2 A7.65745 7.65745
							 -180 0 0 0 826.71 L0 841.89 Z" class="st1"/>
				<text x="97.58" y="833.05" class="st2" v:langID="1033"><v:paragraph v:horizAlign="1"/><v:tabList/>MvcApplication<tspan
							class="st3" v:langID="2052">.</tspan>PostLogRequest</text>			</g>
			<g id="shape22-70" v:mID="22" v:groupContext="shape" v:layerMember="0" transform="translate(0.0165256,0)">
				<title>工作表.22</title>
				<desc>当 ASP.NET 已完成处理的事件处理程序时发生 System.Web.HttpApplication.LogReque...</desc>
				<v:textBlock v:margins="rect(2,2,2,2)" v:tabSpace="42.5197"/>
				<v:textRect cx="170.079" cy="827.888" width="340.16" height="28.0037"/>
				<path d="M-0 833.39 A7.55761 7.55761 -180 0 0 8.5 841.89 L331.65 841.89 A7.53702 7.53702 -180 0 0 340.16 833.39 L340.16
							 813.89 L0 813.89 L0 833.39 Z" class="st1"/>
				<text x="67.58" y="824.89" class="st2" v:langID="2052"><v:paragraph v:horizAlign="1"/><v:tabList/>当 <tspan
							class="st3" v:langID="1033">ASP.NET </tspan>已完成处理的事件处理程序时发生 <tspan x="60.08" dy="1.2em" class="st3"
							v:langID="1033">System.Web.HttpApplication.LogRequest </tspan>事件。</text>			</g>
		</g>
		<g id="group23-75" transform="translate(113.386,-253.972)" v:mID="23" v:groupContext="group" v:layerMember="0">
			<v:custProps>
				<v:cp v:nameU="Cost" v:lbl="成本" v:type="7" v:format="@" v:langID="2052"/>
				<v:cp v:nameU="Duration" v:lbl="持续时间" v:type="2" v:langID="2052"/>
				<v:cp v:nameU="Resources" v:lbl="资源" v:langID="2052"/>
			</v:custProps>
			<v:userDefs>
				<v:ud v:nameU="AntiScale" v:val="VT0(1):26"/>
				<v:ud v:nameU="visVersion" v:val="VT0(15):26"/>
				<v:ud v:nameU="Scale" v:val="VT0(1):26"/>
			</v:userDefs>
			<title>分段流程 2.23</title>
			<g id="shape24-76" v:mID="24" v:groupContext="shape" v:layerMember="0" transform="translate(0,-28.0037)">
				<title>工作表.24</title>
				<desc>MvcApplication.EndRequest</desc>
				<v:textBlock v:margins="rect(2,2,2,2)" v:tabSpace="42.5197"/>
				<v:textRect cx="170.079" cy="830.047" width="340.16" height="23.6853"/>
				<path d="M0 841.89 L340.16 841.89 L340.16 826.71 A7.4577 7.4577 -180 0 0 331.65 818.2 L8.5 818.2 A7.65745 7.65745
							 -180 0 0 0 826.71 L0 841.89 Z" class="st1"/>
				<text x="107.58" y="833.05" class="st2" v:langID="1033"><v:paragraph v:horizAlign="1"/><v:tabList/>MvcApplication<tspan
							class="st3" v:langID="2052">.</tspan>EndRequest</text>			</g>
			<g id="shape25-80" v:mID="25" v:groupContext="shape" v:layerMember="0" transform="translate(0.0165256,0)">
				<title>工作表.25</title>
				<desc>作为执行的 HTTP 管道链中的最后一个事件发生当 ASP.NET 的请求做出响应。</desc>
				<v:textBlock v:margins="rect(2,2,2,2)" v:tabSpace="42.5197"/>
				<v:textRect cx="170.079" cy="827.888" width="340.16" height="28.0037"/>
				<path d="M-0 833.39 A7.55761 7.55761 -180 0 0 8.5 841.89 L331.65 841.89 A7.53702 7.53702 -180 0 0 340.16 833.39 L340.16
							 813.89 L0 813.89 L0 833.39 Z" class="st1"/>
				<text x="2.58" y="824.89" class="st2" v:langID="2052"><v:paragraph v:horizAlign="1"/><v:tabList/>作为执行的 <tspan
							class="st3" v:langID="1033">HTTP </tspan>管道链中的最后一个事件发生，当 <tspan class="st3" v:langID="1033">ASP.NET </tspan>的请求做出响<tspan
							x="160.08" dy="1.2em" class="st3">应</tspan>。</text>			</g>
		</g>
		<g id="group26-86" transform="translate(113.386,-184.252)" v:mID="26" v:groupContext="group" v:layerMember="0">
			<v:custProps>
				<v:cp v:nameU="Cost" v:lbl="成本" v:type="7" v:format="@" v:langID="2052"/>
				<v:cp v:nameU="Duration" v:lbl="持续时间" v:type="2" v:langID="2052"/>
				<v:cp v:nameU="Resources" v:lbl="资源" v:langID="2052"/>
			</v:custProps>
			<v:userDefs>
				<v:ud v:nameU="AntiScale" v:val="VT0(1):26"/>
				<v:ud v:nameU="visVersion" v:val="VT0(15):26"/>
				<v:ud v:nameU="Scale" v:val="VT0(1):26"/>
			</v:userDefs>
			<title>分段流程 2.26</title>
			<g id="shape27-87" v:mID="27" v:groupContext="shape" v:layerMember="0" transform="translate(0,-23.3425)">
				<title>工作表.27</title>
				<desc>MvcApplication.PreSendRequestHeaders</desc>
				<v:textBlock v:margins="rect(2,2,2,2)" v:tabSpace="42.5197"/>
				<v:textRect cx="170.079" cy="827.717" width="340.16" height="28.3464"/>
				<path d="M0 841.89 L340.16 841.89 L340.16 822.05 A7.4577 7.4577 -180 0 0 331.65 813.54 L8.5 813.54 A7.65745 7.65745
							 -180 0 0 0 822.05 L0 841.89 Z" class="st1"/>
				<text x="80.08" y="830.72" class="st2" v:langID="1033"><v:paragraph v:horizAlign="1"/><v:tabList/>MvcApplication<tspan
							class="st3" v:langID="2052">.</tspan>PreSendRequestHeaders</text>			</g>
			<g id="shape28-91" v:mID="28" v:groupContext="shape" v:layerMember="0" transform="translate(0.0165256,0)">
				<title>工作表.28</title>
				<desc>ASP.NET 将 HTTP 请求头发送到客户端之前触发</desc>
				<v:textBlock v:margins="rect(2,2,2,2)" v:tabSpace="42.5197"/>
				<v:textRect cx="170.079" cy="830.218" width="340.16" height="23.3425"/>
				<path d="M-0 833.39 A7.55761 7.55761 -180 0 0 8.5 841.89 L331.65 841.89 A7.53702 7.53702 -180 0 0 340.16 833.39 L340.16
							 818.55 L0 818.55 L0 833.39 Z" class="st1"/>
				<text x="65.08" y="833.22" class="st2" v:langID="1033"><v:paragraph v:horizAlign="1"/><v:tabList/>ASP.NET <tspan
							class="st3" v:langID="2052">将</tspan><tspan class="st3" v:langID="2052"> </tspan>HTTP <tspan
							class="st3" v:langID="2052">请求头发送到客户端之前触发</tspan></text>			</g>
		</g>
		<g id="group29-97" transform="translate(113.386,-114.532)" v:mID="29" v:groupContext="group" v:layerMember="0">
			<v:custProps>
				<v:cp v:nameU="Cost" v:lbl="成本" v:type="7" v:format="@" v:langID="2052"/>
				<v:cp v:nameU="Duration" v:lbl="持续时间" v:type="2" v:langID="2052"/>
				<v:cp v:nameU="Resources" v:lbl="资源" v:langID="2052"/>
			</v:custProps>
			<v:userDefs>
				<v:ud v:nameU="AntiScale" v:val="VT0(1):26"/>
				<v:ud v:nameU="visVersion" v:val="VT0(15):26"/>
				<v:ud v:nameU="Scale" v:val="VT0(1):26"/>
			</v:userDefs>
			<title>分段流程 2.29</title>
			<g id="shape30-98" v:mID="30" v:groupContext="shape" v:layerMember="0" transform="translate(0,-23.3425)">
				<title>工作表.30</title>
				<desc>MvcApplication.PreSendRequestContent</desc>
				<v:textBlock v:margins="rect(2,2,2,2)" v:tabSpace="42.5197"/>
				<v:textRect cx="170.079" cy="827.717" width="340.16" height="28.3464"/>
				<path d="M0 841.89 L340.16 841.89 L340.16 822.05 A7.4577 7.4577 -180 0 0 331.65 813.54 L8.5 813.54 A7.65745 7.65745
							 -180 0 0 0 822.05 L0 841.89 Z" class="st1"/>
				<text x="80.08" y="830.72" class="st2" v:langID="1033"><v:paragraph v:horizAlign="1"/><v:tabList/>MvcApplication<tspan
							class="st3" v:langID="2052">.</tspan>PreSendRequestContent</text>			</g>
			<g id="shape31-102" v:mID="31" v:groupContext="shape" v:layerMember="0" transform="translate(0.0165256,0)">
				<title>工作表.31</title>
				<desc>ASP.NET 将内容发送到客户端之前发生</desc>
				<v:textBlock v:margins="rect(2,2,2,2)" v:tabSpace="42.5197"/>
				<v:textRect cx="170.079" cy="830.218" width="340.16" height="23.3425"/>
				<path d="M-0 833.39 A7.55761 7.55761 -180 0 0 8.5 841.89 L331.65 841.89 A7.53702 7.53702 -180 0 0 340.16 833.39 L340.16
							 818.55 L0 818.55 L0 833.39 Z" class="st1"/>
				<text x="85.08" y="833.22" class="st2" v:langID="1033"><v:paragraph v:horizAlign="1"/><v:tabList/>ASP.NET <tspan
							class="st3" v:langID="2052">将内容发送到客户端之前发生</tspan></text>			</g>
		</g>
		<g id="group32-106" transform="translate(113.386,-44.812)" v:mID="32" v:groupContext="group" v:layerMember="0">
			<v:custProps>
				<v:cp v:nameU="Cost" v:lbl="成本" v:type="7" v:format="@" v:langID="2052"/>
				<v:cp v:nameU="Duration" v:lbl="持续时间" v:type="2" v:langID="2052"/>
				<v:cp v:nameU="Resources" v:lbl="资源" v:langID="2052"/>
			</v:custProps>
			<v:userDefs>
				<v:ud v:nameU="AntiScale" v:val="VT0(1):26"/>
				<v:ud v:nameU="visVersion" v:val="VT0(15):26"/>
				<v:ud v:nameU="Scale" v:val="VT0(1):26"/>
			</v:userDefs>
			<title>分段流程 2.32</title>
			<g id="shape33-107" v:mID="33" v:groupContext="shape" v:layerMember="0" transform="translate(0,-23.3425)">
				<title>工作表.33</title>
				<desc>MvcApplication.RequestCompleted</desc>
				<v:textBlock v:margins="rect(2,2,2,2)" v:tabSpace="42.5197"/>
				<v:textRect cx="170.079" cy="827.717" width="340.16" height="28.3464"/>
				<path d="M0 841.89 L340.16 841.89 L340.16 822.05 A7.4577 7.4577 -180 0 0 331.65 813.54 L8.5 813.54 A7.65745 7.65745
							 -180 0 0 0 822.05 L0 841.89 Z" class="st1"/>
				<text x="92.58" y="830.72" class="st2" v:langID="1033"><v:paragraph v:horizAlign="1"/><v:tabList/>MvcApplication<tspan
							class="st3" v:langID="2052">.</tspan>RequestCompleted</text>			</g>
			<g id="shape34-111" v:mID="34" v:groupContext="shape" v:layerMember="0" transform="translate(0.0165256,0)">
				<title>工作表.34</title>
				<desc>ASP.NET 已释放与请求相关联的托管的对象时发生</desc>
				<v:textBlock v:margins="rect(2,2,2,2)" v:tabSpace="42.5197"/>
				<v:textRect cx="170.079" cy="830.218" width="340.16" height="23.3425"/>
				<path d="M-0 833.39 A7.55761 7.55761 -180 0 0 8.5 841.89 L331.65 841.89 A7.53702 7.53702 -180 0 0 340.16 833.39 L340.16
							 818.55 L0 818.55 L0 833.39 Z" class="st1"/>
				<text x="60.08" y="833.22" class="st2" v:langID="1033"><v:paragraph v:horizAlign="1"/><v:tabList/>ASP.NET <tspan
							class="st3" v:langID="2052">已释放与请求相关联的托管的对象时发生</tspan></text>			</g>
		</g>
	</g>
</svg>
